<mxfile host="app.diagrams.net" modified="2021-08-16T10:34:26.067Z" agent="5.0 (Windows NT 10.0; Win64; x64) AppleWebKit/537.36 (KHTML, like Gecko) Chrome/92.0.4515.131 Safari/537.36" etag="cavMxvLzVlI760YDHA1k" version="14.9.6" type="github">
  <diagram id="3Ga6dScyXUw5H9ggd_e5" name="初期値URLからタイムライン画面の表示まで">
    <mxGraphModel dx="868" dy="482" grid="1" gridSize="10" guides="1" tooltips="1" connect="1" arrows="1" fold="1" page="1" pageScale="1" pageWidth="827" pageHeight="1169" math="0" shadow="0">
      <root>
        <mxCell id="0" />
        <mxCell id="1" parent="0" />
        <mxCell id="QCV03pJBRbpHMn6trOfh-1" value="client" style="shape=umlLifeline;perimeter=lifelinePerimeter;whiteSpace=wrap;html=1;container=1;collapsible=0;recursiveResize=0;outlineConnect=0;" vertex="1" parent="1">
          <mxGeometry x="40" y="40" width="100" height="520" as="geometry" />
        </mxCell>
        <mxCell id="QCV03pJBRbpHMn6trOfh-2" value="main.py" style="shape=umlLifeline;perimeter=lifelinePerimeter;whiteSpace=wrap;html=1;container=1;collapsible=0;recursiveResize=0;outlineConnect=0;" vertex="1" parent="1">
          <mxGeometry x="200" y="40" width="100" height="520" as="geometry" />
        </mxCell>
        <mxCell id="QCV03pJBRbpHMn6trOfh-3" value="[Presenter]&lt;br&gt;timeline.py" style="shape=umlLifeline;perimeter=lifelinePerimeter;whiteSpace=wrap;html=1;container=1;collapsible=0;recursiveResize=0;outlineConnect=0;" vertex="1" parent="1">
          <mxGeometry x="360" y="40" width="100" height="520" as="geometry" />
        </mxCell>
        <mxCell id="QCV03pJBRbpHMn6trOfh-16" value="" style="html=1;points=[];perimeter=orthogonalPerimeter;" vertex="1" parent="QCV03pJBRbpHMn6trOfh-3">
          <mxGeometry x="44" y="120" width="10" height="80" as="geometry" />
        </mxCell>
        <mxCell id="QCV03pJBRbpHMn6trOfh-4" value="[View]&lt;br&gt;timeline.html" style="shape=umlLifeline;perimeter=lifelinePerimeter;whiteSpace=wrap;html=1;container=1;collapsible=0;recursiveResize=0;outlineConnect=0;" vertex="1" parent="1">
          <mxGeometry x="520" y="40" width="100" height="400" as="geometry" />
        </mxCell>
        <mxCell id="QCV03pJBRbpHMn6trOfh-5" value="[Model]&lt;br&gt;model.py" style="shape=umlLifeline;perimeter=lifelinePerimeter;whiteSpace=wrap;html=1;container=1;collapsible=0;recursiveResize=0;outlineConnect=0;" vertex="1" parent="1">
          <mxGeometry x="680" y="40" width="100" height="400" as="geometry" />
        </mxCell>
        <mxCell id="QCV03pJBRbpHMn6trOfh-13" value="" style="html=1;points=[];perimeter=orthogonalPerimeter;" vertex="1" parent="1">
          <mxGeometry x="245" y="140" width="10" height="130" as="geometry" />
        </mxCell>
        <mxCell id="QCV03pJBRbpHMn6trOfh-14" value="/&lt;br&gt;__render_page" style="html=1;verticalAlign=bottom;endArrow=block;entryX=0;entryY=0;" edge="1" target="QCV03pJBRbpHMn6trOfh-13" parent="1">
          <mxGeometry relative="1" as="geometry">
            <mxPoint x="90" y="140" as="sourcePoint" />
          </mxGeometry>
        </mxCell>
        <mxCell id="QCV03pJBRbpHMn6trOfh-15" value="/timeline" style="html=1;verticalAlign=bottom;endArrow=open;dashed=1;endSize=8;exitX=0;exitY=0.95;" edge="1" source="QCV03pJBRbpHMn6trOfh-13" parent="1" target="QCV03pJBRbpHMn6trOfh-1">
          <mxGeometry relative="1" as="geometry">
            <mxPoint x="90" y="216" as="targetPoint" />
          </mxGeometry>
        </mxCell>
        <mxCell id="QCV03pJBRbpHMn6trOfh-17" value="/&lt;br&gt;redirect_to_timeline" style="html=1;verticalAlign=bottom;endArrow=block;entryX=0;entryY=0;" edge="1" target="QCV03pJBRbpHMn6trOfh-16" parent="1">
          <mxGeometry relative="1" as="geometry">
            <mxPoint x="250" y="160" as="sourcePoint" />
          </mxGeometry>
        </mxCell>
        <mxCell id="QCV03pJBRbpHMn6trOfh-18" value="/timeline" style="html=1;verticalAlign=bottom;endArrow=open;dashed=1;endSize=8;exitX=0;exitY=0.95;" edge="1" source="QCV03pJBRbpHMn6trOfh-16" parent="1">
          <mxGeometry relative="1" as="geometry">
            <mxPoint x="250" y="236" as="targetPoint" />
          </mxGeometry>
        </mxCell>
        <mxCell id="QCV03pJBRbpHMn6trOfh-19" value="" style="html=1;points=[];perimeter=orthogonalPerimeter;" vertex="1" parent="1">
          <mxGeometry x="405" y="320" width="10" height="150" as="geometry" />
        </mxCell>
        <mxCell id="QCV03pJBRbpHMn6trOfh-20" value="/timeline&lt;br&gt;__render_page" style="html=1;verticalAlign=bottom;endArrow=block;entryX=0;entryY=0;" edge="1" target="QCV03pJBRbpHMn6trOfh-19" parent="1" source="QCV03pJBRbpHMn6trOfh-1">
          <mxGeometry relative="1" as="geometry">
            <mxPoint x="90" y="300" as="sourcePoint" />
          </mxGeometry>
        </mxCell>
        <mxCell id="QCV03pJBRbpHMn6trOfh-21" value="response" style="html=1;verticalAlign=bottom;endArrow=open;dashed=1;endSize=8;exitX=0;exitY=0.95;" edge="1" source="QCV03pJBRbpHMn6trOfh-19" parent="1" target="QCV03pJBRbpHMn6trOfh-1">
          <mxGeometry relative="1" as="geometry">
            <mxPoint x="90" y="376" as="targetPoint" />
          </mxGeometry>
        </mxCell>
        <mxCell id="QCV03pJBRbpHMn6trOfh-24" value="posts" style="html=1;verticalAlign=bottom;endArrow=open;dashed=1;endSize=8;exitX=0;exitY=0.95;" edge="1" parent="1">
          <mxGeometry relative="1" as="geometry">
            <mxPoint x="410" y="340" as="targetPoint" />
            <mxPoint x="730" y="340" as="sourcePoint" />
          </mxGeometry>
        </mxCell>
        <mxCell id="QCV03pJBRbpHMn6trOfh-25" value="" style="html=1;points=[];perimeter=orthogonalPerimeter;" vertex="1" parent="1">
          <mxGeometry x="565" y="360" width="10" height="80" as="geometry" />
        </mxCell>
        <mxCell id="QCV03pJBRbpHMn6trOfh-26" value="render_template" style="html=1;verticalAlign=bottom;endArrow=block;entryX=0;entryY=0;" edge="1" target="QCV03pJBRbpHMn6trOfh-25" parent="1">
          <mxGeometry relative="1" as="geometry">
            <mxPoint x="405" y="360" as="sourcePoint" />
          </mxGeometry>
        </mxCell>
        <mxCell id="QCV03pJBRbpHMn6trOfh-27" value="response" style="html=1;verticalAlign=bottom;endArrow=open;dashed=1;endSize=8;exitX=0;exitY=0.95;" edge="1" source="QCV03pJBRbpHMn6trOfh-25" parent="1">
          <mxGeometry relative="1" as="geometry">
            <mxPoint x="405" y="436" as="targetPoint" />
          </mxGeometry>
        </mxCell>
      </root>
    </mxGraphModel>
  </diagram>
</mxfile>
